<mxfile host="app.diagrams.net" modified="2024-03-07T21:04:12.089Z" agent="Mozilla/5.0 (Windows NT 10.0; Win64; x64) AppleWebKit/537.36 (KHTML, like Gecko) Chrome/122.0.0.0 Safari/537.36" etag="J6gl5efsDtgGgNTRJ8M3" version="24.0.0" type="device">
  <diagram name="PÃ¡gina-1" id="ms9BkDQ4w1Bx71AXhPto">
    <mxGraphModel dx="1909" dy="1209" grid="1" gridSize="10" guides="1" tooltips="1" connect="1" arrows="1" fold="1" page="1" pageScale="1" pageWidth="827" pageHeight="1169" math="0" shadow="0">
      <root>
        <mxCell id="0" />
        <mxCell id="1" parent="0" />
        <mxCell id="bn8CDc2ltYo8I26y6Iki-1" value="" style="shape=table;startSize=0;container=1;collapsible=0;childLayout=tableLayout;fontSize=16;" vertex="1" parent="1">
          <mxGeometry x="296" y="120" width="236" height="40" as="geometry" />
        </mxCell>
        <mxCell id="bn8CDc2ltYo8I26y6Iki-2" value="" style="shape=tableRow;horizontal=0;startSize=0;swimlaneHead=0;swimlaneBody=0;strokeColor=inherit;top=0;left=0;bottom=0;right=0;collapsible=0;dropTarget=0;fillColor=none;points=[[0,0.5],[1,0.5]];portConstraint=eastwest;fontSize=16;" vertex="1" parent="bn8CDc2ltYo8I26y6Iki-1">
          <mxGeometry width="236" height="40" as="geometry" />
        </mxCell>
        <mxCell id="bn8CDc2ltYo8I26y6Iki-3" value="&lt;u&gt;number&lt;/u&gt;" style="shape=partialRectangle;html=1;whiteSpace=wrap;connectable=0;strokeColor=inherit;overflow=hidden;fillColor=none;top=0;left=0;bottom=0;right=0;pointerEvents=1;fontSize=16;" vertex="1" parent="bn8CDc2ltYo8I26y6Iki-2">
          <mxGeometry width="79" height="40" as="geometry">
            <mxRectangle width="79" height="40" as="alternateBounds" />
          </mxGeometry>
        </mxCell>
        <mxCell id="bn8CDc2ltYo8I26y6Iki-4" value="airline" style="shape=partialRectangle;html=1;whiteSpace=wrap;connectable=0;strokeColor=inherit;overflow=hidden;fillColor=none;top=0;left=0;bottom=0;right=0;pointerEvents=1;fontSize=16;" vertex="1" parent="bn8CDc2ltYo8I26y6Iki-2">
          <mxGeometry x="79" width="78" height="40" as="geometry">
            <mxRectangle width="78" height="40" as="alternateBounds" />
          </mxGeometry>
        </mxCell>
        <mxCell id="bn8CDc2ltYo8I26y6Iki-5" value="weekdays" style="shape=partialRectangle;html=1;whiteSpace=wrap;connectable=0;strokeColor=inherit;overflow=hidden;fillColor=none;top=0;left=0;bottom=0;right=0;pointerEvents=1;fontSize=16;" vertex="1" parent="bn8CDc2ltYo8I26y6Iki-2">
          <mxGeometry x="157" width="79" height="40" as="geometry">
            <mxRectangle width="79" height="40" as="alternateBounds" />
          </mxGeometry>
        </mxCell>
        <mxCell id="bn8CDc2ltYo8I26y6Iki-16" value="Flight" style="text;html=1;align=center;verticalAlign=middle;whiteSpace=wrap;rounded=0;fontSize=15;" vertex="1" parent="1">
          <mxGeometry x="296" y="90" width="60" height="30" as="geometry" />
        </mxCell>
        <mxCell id="bn8CDc2ltYo8I26y6Iki-17" value="" style="shape=table;startSize=0;container=1;collapsible=0;childLayout=tableLayout;fontSize=16;" vertex="1" parent="1">
          <mxGeometry x="296" y="230" width="364" height="40" as="geometry" />
        </mxCell>
        <mxCell id="bn8CDc2ltYo8I26y6Iki-18" value="" style="shape=tableRow;horizontal=0;startSize=0;swimlaneHead=0;swimlaneBody=0;strokeColor=inherit;top=0;left=0;bottom=0;right=0;collapsible=0;dropTarget=0;fillColor=none;points=[[0,0.5],[1,0.5]];portConstraint=eastwest;fontSize=16;" vertex="1" parent="bn8CDc2ltYo8I26y6Iki-17">
          <mxGeometry width="364" height="40" as="geometry" />
        </mxCell>
        <mxCell id="bn8CDc2ltYo8I26y6Iki-19" value="&lt;u&gt;number(FK)&lt;/u&gt;" style="shape=partialRectangle;html=1;whiteSpace=wrap;connectable=0;strokeColor=inherit;overflow=hidden;fillColor=none;top=0;left=0;bottom=0;right=0;pointerEvents=1;fontSize=16;" vertex="1" parent="bn8CDc2ltYo8I26y6Iki-18">
          <mxGeometry width="91" height="40" as="geometry">
            <mxRectangle width="91" height="40" as="alternateBounds" />
          </mxGeometry>
        </mxCell>
        <mxCell id="bn8CDc2ltYo8I26y6Iki-20" value="&lt;u&gt;code&lt;/u&gt;" style="shape=partialRectangle;html=1;whiteSpace=wrap;connectable=0;strokeColor=inherit;overflow=hidden;fillColor=none;top=0;left=0;bottom=0;right=0;pointerEvents=1;fontSize=16;" vertex="1" parent="bn8CDc2ltYo8I26y6Iki-18">
          <mxGeometry x="91" width="91" height="40" as="geometry">
            <mxRectangle width="91" height="40" as="alternateBounds" />
          </mxGeometry>
        </mxCell>
        <mxCell id="bn8CDc2ltYo8I26y6Iki-21" value="restrictions" style="shape=partialRectangle;html=1;whiteSpace=wrap;connectable=0;strokeColor=inherit;overflow=hidden;fillColor=none;top=0;left=0;bottom=0;right=0;pointerEvents=1;fontSize=16;" vertex="1" parent="bn8CDc2ltYo8I26y6Iki-18">
          <mxGeometry x="182" width="91" height="40" as="geometry">
            <mxRectangle width="91" height="40" as="alternateBounds" />
          </mxGeometry>
        </mxCell>
        <mxCell id="bn8CDc2ltYo8I26y6Iki-23" value="amount" style="shape=partialRectangle;html=1;whiteSpace=wrap;connectable=0;strokeColor=inherit;overflow=hidden;fillColor=none;top=0;left=0;bottom=0;right=0;pointerEvents=1;fontSize=16;" vertex="1" parent="bn8CDc2ltYo8I26y6Iki-18">
          <mxGeometry x="273" width="91" height="40" as="geometry">
            <mxRectangle width="91" height="40" as="alternateBounds" />
          </mxGeometry>
        </mxCell>
        <mxCell id="bn8CDc2ltYo8I26y6Iki-22" value="Fare" style="text;html=1;align=center;verticalAlign=middle;whiteSpace=wrap;rounded=0;fontSize=15;" vertex="1" parent="1">
          <mxGeometry x="296" y="200" width="60" height="30" as="geometry" />
        </mxCell>
        <mxCell id="bn8CDc2ltYo8I26y6Iki-24" value="" style="shape=table;startSize=0;container=1;collapsible=0;childLayout=tableLayout;fontSize=16;" vertex="1" parent="1">
          <mxGeometry x="296" y="340" width="1424" height="40" as="geometry" />
        </mxCell>
        <mxCell id="bn8CDc2ltYo8I26y6Iki-25" value="" style="shape=tableRow;horizontal=0;startSize=0;swimlaneHead=0;swimlaneBody=0;strokeColor=inherit;top=0;left=0;bottom=0;right=0;collapsible=0;dropTarget=0;fillColor=none;points=[[0,0.5],[1,0.5]];portConstraint=eastwest;fontSize=16;" vertex="1" parent="bn8CDc2ltYo8I26y6Iki-24">
          <mxGeometry width="1424" height="40" as="geometry" />
        </mxCell>
        <mxCell id="bn8CDc2ltYo8I26y6Iki-26" value="&lt;u&gt;number(FK)&lt;/u&gt;" style="shape=partialRectangle;html=1;whiteSpace=wrap;connectable=0;strokeColor=inherit;overflow=hidden;fillColor=none;top=0;left=0;bottom=0;right=0;pointerEvents=1;fontSize=16;" vertex="1" parent="bn8CDc2ltYo8I26y6Iki-25">
          <mxGeometry width="238" height="40" as="geometry">
            <mxRectangle width="238" height="40" as="alternateBounds" />
          </mxGeometry>
        </mxCell>
        <mxCell id="bn8CDc2ltYo8I26y6Iki-27" value="arrival_airport_code(FK)" style="shape=partialRectangle;html=1;whiteSpace=wrap;connectable=0;strokeColor=inherit;overflow=hidden;fillColor=none;top=0;left=0;bottom=0;right=0;pointerEvents=1;fontSize=16;" vertex="1" parent="bn8CDc2ltYo8I26y6Iki-25">
          <mxGeometry x="238" width="234" height="40" as="geometry">
            <mxRectangle width="234" height="40" as="alternateBounds" />
          </mxGeometry>
        </mxCell>
        <mxCell id="bn8CDc2ltYo8I26y6Iki-28" value="departure_airport_code(FK)" style="shape=partialRectangle;html=1;whiteSpace=wrap;connectable=0;strokeColor=inherit;overflow=hidden;fillColor=none;top=0;left=0;bottom=0;right=0;pointerEvents=1;fontSize=16;" vertex="1" parent="bn8CDc2ltYo8I26y6Iki-25">
          <mxGeometry x="472" width="238" height="40" as="geometry">
            <mxRectangle width="238" height="40" as="alternateBounds" />
          </mxGeometry>
        </mxCell>
        <mxCell id="bn8CDc2ltYo8I26y6Iki-30" value="Scheduled_dep_time(FK)" style="shape=partialRectangle;html=1;whiteSpace=wrap;connectable=0;strokeColor=inherit;overflow=hidden;fillColor=none;top=0;left=0;bottom=0;right=0;pointerEvents=1;fontSize=16;" vertex="1" parent="bn8CDc2ltYo8I26y6Iki-25">
          <mxGeometry x="710" width="238" height="40" as="geometry">
            <mxRectangle width="238" height="40" as="alternateBounds" />
          </mxGeometry>
        </mxCell>
        <mxCell id="bn8CDc2ltYo8I26y6Iki-31" value="&lt;span style=&quot;color: rgb(0, 0, 0); font-family: Helvetica; font-size: 16px; font-style: normal; font-variant-ligatures: normal; font-variant-caps: normal; font-weight: 400; letter-spacing: normal; orphans: 2; text-align: center; text-indent: 0px; text-transform: none; widows: 2; word-spacing: 0px; -webkit-text-stroke-width: 0px; white-space: normal; background-color: rgb(251, 251, 251); text-decoration-thickness: initial; text-decoration-style: initial; text-decoration-color: initial; display: inline !important; float: none;&quot;&gt;Scheduled_arr_time(FK)&lt;/span&gt;" style="shape=partialRectangle;html=1;whiteSpace=wrap;connectable=0;strokeColor=inherit;overflow=hidden;fillColor=none;top=0;left=0;bottom=0;right=0;pointerEvents=1;fontSize=16;" vertex="1" parent="bn8CDc2ltYo8I26y6Iki-25">
          <mxGeometry x="948" width="238" height="40" as="geometry">
            <mxRectangle width="238" height="40" as="alternateBounds" />
          </mxGeometry>
        </mxCell>
        <mxCell id="bn8CDc2ltYo8I26y6Iki-32" value="&lt;u&gt;leg_no&lt;/u&gt;" style="shape=partialRectangle;html=1;whiteSpace=wrap;connectable=0;strokeColor=inherit;overflow=hidden;fillColor=none;top=0;left=0;bottom=0;right=0;pointerEvents=1;fontSize=16;" vertex="1" parent="bn8CDc2ltYo8I26y6Iki-25">
          <mxGeometry x="1186" width="238" height="40" as="geometry">
            <mxRectangle width="238" height="40" as="alternateBounds" />
          </mxGeometry>
        </mxCell>
        <mxCell id="bn8CDc2ltYo8I26y6Iki-29" value="Flight_leg" style="text;html=1;align=center;verticalAlign=middle;whiteSpace=wrap;rounded=0;fontSize=15;" vertex="1" parent="1">
          <mxGeometry x="296" y="310" width="60" height="30" as="geometry" />
        </mxCell>
        <mxCell id="bn8CDc2ltYo8I26y6Iki-33" value="" style="shape=table;startSize=0;container=1;collapsible=0;childLayout=tableLayout;fontSize=16;" vertex="1" parent="1">
          <mxGeometry x="296" y="570" width="414" height="40" as="geometry" />
        </mxCell>
        <mxCell id="bn8CDc2ltYo8I26y6Iki-34" value="" style="shape=tableRow;horizontal=0;startSize=0;swimlaneHead=0;swimlaneBody=0;strokeColor=inherit;top=0;left=0;bottom=0;right=0;collapsible=0;dropTarget=0;fillColor=none;points=[[0,0.5],[1,0.5]];portConstraint=eastwest;fontSize=16;" vertex="1" parent="bn8CDc2ltYo8I26y6Iki-33">
          <mxGeometry width="414" height="40" as="geometry" />
        </mxCell>
        <mxCell id="bn8CDc2ltYo8I26y6Iki-35" value="&lt;u&gt;airport_code&lt;/u&gt;" style="shape=partialRectangle;html=1;whiteSpace=wrap;connectable=0;strokeColor=inherit;overflow=hidden;fillColor=none;top=0;left=0;bottom=0;right=0;pointerEvents=1;fontSize=16;" vertex="1" parent="bn8CDc2ltYo8I26y6Iki-34">
          <mxGeometry width="104" height="40" as="geometry">
            <mxRectangle width="104" height="40" as="alternateBounds" />
          </mxGeometry>
        </mxCell>
        <mxCell id="bn8CDc2ltYo8I26y6Iki-36" value="city" style="shape=partialRectangle;html=1;whiteSpace=wrap;connectable=0;strokeColor=inherit;overflow=hidden;fillColor=none;top=0;left=0;bottom=0;right=0;pointerEvents=1;fontSize=16;" vertex="1" parent="bn8CDc2ltYo8I26y6Iki-34">
          <mxGeometry x="104" width="102" height="40" as="geometry">
            <mxRectangle width="102" height="40" as="alternateBounds" />
          </mxGeometry>
        </mxCell>
        <mxCell id="bn8CDc2ltYo8I26y6Iki-37" value="state" style="shape=partialRectangle;html=1;whiteSpace=wrap;connectable=0;strokeColor=inherit;overflow=hidden;fillColor=none;top=0;left=0;bottom=0;right=0;pointerEvents=1;fontSize=16;" vertex="1" parent="bn8CDc2ltYo8I26y6Iki-34">
          <mxGeometry x="206" width="104" height="40" as="geometry">
            <mxRectangle width="104" height="40" as="alternateBounds" />
          </mxGeometry>
        </mxCell>
        <mxCell id="bn8CDc2ltYo8I26y6Iki-39" value="name" style="shape=partialRectangle;html=1;whiteSpace=wrap;connectable=0;strokeColor=inherit;overflow=hidden;fillColor=none;top=0;left=0;bottom=0;right=0;pointerEvents=1;fontSize=16;" vertex="1" parent="bn8CDc2ltYo8I26y6Iki-34">
          <mxGeometry x="310" width="104" height="40" as="geometry">
            <mxRectangle width="104" height="40" as="alternateBounds" />
          </mxGeometry>
        </mxCell>
        <mxCell id="bn8CDc2ltYo8I26y6Iki-38" value="Airport" style="text;html=1;align=center;verticalAlign=middle;whiteSpace=wrap;rounded=0;fontSize=15;" vertex="1" parent="1">
          <mxGeometry x="296" y="540" width="60" height="30" as="geometry" />
        </mxCell>
        <mxCell id="bn8CDc2ltYo8I26y6Iki-46" value="" style="shape=table;startSize=0;container=1;collapsible=0;childLayout=tableLayout;fontSize=16;" vertex="1" parent="1">
          <mxGeometry x="296" y="470" width="1648" height="40" as="geometry" />
        </mxCell>
        <mxCell id="bn8CDc2ltYo8I26y6Iki-47" value="" style="shape=tableRow;horizontal=0;startSize=0;swimlaneHead=0;swimlaneBody=0;strokeColor=inherit;top=0;left=0;bottom=0;right=0;collapsible=0;dropTarget=0;fillColor=none;points=[[0,0.5],[1,0.5]];portConstraint=eastwest;fontSize=16;" vertex="1" parent="bn8CDc2ltYo8I26y6Iki-46">
          <mxGeometry width="1648" height="40" as="geometry" />
        </mxCell>
        <mxCell id="bn8CDc2ltYo8I26y6Iki-48" value="&lt;u&gt;date&lt;/u&gt;" style="shape=partialRectangle;html=1;whiteSpace=wrap;connectable=0;strokeColor=inherit;overflow=hidden;fillColor=none;top=0;left=0;bottom=0;right=0;pointerEvents=1;fontSize=16;" vertex="1" parent="bn8CDc2ltYo8I26y6Iki-47">
          <mxGeometry width="184" height="40" as="geometry">
            <mxRectangle width="184" height="40" as="alternateBounds" />
          </mxGeometry>
        </mxCell>
        <mxCell id="bn8CDc2ltYo8I26y6Iki-49" value="no_of_availaba_seats" style="shape=partialRectangle;html=1;whiteSpace=wrap;connectable=0;strokeColor=inherit;overflow=hidden;fillColor=none;top=0;left=0;bottom=0;right=0;pointerEvents=1;fontSize=16;" vertex="1" parent="bn8CDc2ltYo8I26y6Iki-47">
          <mxGeometry x="184" width="180" height="40" as="geometry">
            <mxRectangle width="180" height="40" as="alternateBounds" />
          </mxGeometry>
        </mxCell>
        <mxCell id="bn8CDc2ltYo8I26y6Iki-50" value="departure_airport_code&lt;div&gt;(FK)&lt;/div&gt;" style="shape=partialRectangle;html=1;whiteSpace=wrap;connectable=0;strokeColor=inherit;overflow=hidden;fillColor=none;top=0;left=0;bottom=0;right=0;pointerEvents=1;fontSize=16;" vertex="1" parent="bn8CDc2ltYo8I26y6Iki-47">
          <mxGeometry x="364" width="182" height="40" as="geometry">
            <mxRectangle width="182" height="40" as="alternateBounds" />
          </mxGeometry>
        </mxCell>
        <mxCell id="bn8CDc2ltYo8I26y6Iki-51" value="arrival_airport_code(FK)" style="shape=partialRectangle;html=1;whiteSpace=wrap;connectable=0;strokeColor=inherit;overflow=hidden;fillColor=none;top=0;left=0;bottom=0;right=0;pointerEvents=1;fontSize=16;" vertex="1" parent="bn8CDc2ltYo8I26y6Iki-47">
          <mxGeometry x="546" width="184" height="40" as="geometry">
            <mxRectangle width="184" height="40" as="alternateBounds" />
          </mxGeometry>
        </mxCell>
        <mxCell id="bn8CDc2ltYo8I26y6Iki-55" value="dep_time" style="shape=partialRectangle;html=1;whiteSpace=wrap;connectable=0;strokeColor=inherit;overflow=hidden;fillColor=none;top=0;left=0;bottom=0;right=0;pointerEvents=1;fontSize=16;" vertex="1" parent="bn8CDc2ltYo8I26y6Iki-47">
          <mxGeometry x="730" width="183" height="40" as="geometry">
            <mxRectangle width="183" height="40" as="alternateBounds" />
          </mxGeometry>
        </mxCell>
        <mxCell id="bn8CDc2ltYo8I26y6Iki-54" value="arrival_time" style="shape=partialRectangle;html=1;whiteSpace=wrap;connectable=0;strokeColor=inherit;overflow=hidden;fillColor=none;top=0;left=0;bottom=0;right=0;pointerEvents=1;fontSize=16;" vertex="1" parent="bn8CDc2ltYo8I26y6Iki-47">
          <mxGeometry x="913" width="184" height="40" as="geometry">
            <mxRectangle width="184" height="40" as="alternateBounds" />
          </mxGeometry>
        </mxCell>
        <mxCell id="bn8CDc2ltYo8I26y6Iki-53" value="&lt;u&gt;flight_number(FK)&lt;/u&gt;" style="shape=partialRectangle;html=1;whiteSpace=wrap;connectable=0;strokeColor=inherit;overflow=hidden;fillColor=none;top=0;left=0;bottom=0;right=0;pointerEvents=1;fontSize=16;" vertex="1" parent="bn8CDc2ltYo8I26y6Iki-47">
          <mxGeometry x="1097" width="183" height="40" as="geometry">
            <mxRectangle width="183" height="40" as="alternateBounds" />
          </mxGeometry>
        </mxCell>
        <mxCell id="bn8CDc2ltYo8I26y6Iki-56" value="&lt;u&gt;flight_leg_number(FK)&lt;/u&gt;" style="shape=partialRectangle;html=1;whiteSpace=wrap;connectable=0;strokeColor=inherit;overflow=hidden;fillColor=none;top=0;left=0;bottom=0;right=0;pointerEvents=1;fontSize=16;" vertex="1" parent="bn8CDc2ltYo8I26y6Iki-47">
          <mxGeometry x="1280" width="184" height="40" as="geometry">
            <mxRectangle width="184" height="40" as="alternateBounds" />
          </mxGeometry>
        </mxCell>
        <mxCell id="bn8CDc2ltYo8I26y6Iki-94" value="&lt;u&gt;Airplane ID(FK)&lt;/u&gt;" style="shape=partialRectangle;html=1;whiteSpace=wrap;connectable=0;strokeColor=inherit;overflow=hidden;fillColor=none;top=0;left=0;bottom=0;right=0;pointerEvents=1;fontSize=16;" vertex="1" parent="bn8CDc2ltYo8I26y6Iki-47">
          <mxGeometry x="1464" width="184" height="40" as="geometry">
            <mxRectangle width="184" height="40" as="alternateBounds" />
          </mxGeometry>
        </mxCell>
        <mxCell id="bn8CDc2ltYo8I26y6Iki-52" value="Leg_instance" style="text;html=1;align=center;verticalAlign=middle;whiteSpace=wrap;rounded=0;fontSize=15;" vertex="1" parent="1">
          <mxGeometry x="310" y="440" width="60" height="30" as="geometry" />
        </mxCell>
        <mxCell id="bn8CDc2ltYo8I26y6Iki-57" value="" style="shape=table;startSize=0;container=1;collapsible=0;childLayout=tableLayout;fontSize=16;" vertex="1" parent="1">
          <mxGeometry x="296" y="680" width="310" height="40" as="geometry" />
        </mxCell>
        <mxCell id="bn8CDc2ltYo8I26y6Iki-58" value="" style="shape=tableRow;horizontal=0;startSize=0;swimlaneHead=0;swimlaneBody=0;strokeColor=inherit;top=0;left=0;bottom=0;right=0;collapsible=0;dropTarget=0;fillColor=none;points=[[0,0.5],[1,0.5]];portConstraint=eastwest;fontSize=16;" vertex="1" parent="bn8CDc2ltYo8I26y6Iki-57">
          <mxGeometry width="310" height="40" as="geometry" />
        </mxCell>
        <mxCell id="bn8CDc2ltYo8I26y6Iki-59" value="&lt;u&gt;Airplane ID&lt;/u&gt;" style="shape=partialRectangle;html=1;whiteSpace=wrap;connectable=0;strokeColor=inherit;overflow=hidden;fillColor=none;top=0;left=0;bottom=0;right=0;pointerEvents=1;fontSize=16;" vertex="1" parent="bn8CDc2ltYo8I26y6Iki-58">
          <mxGeometry width="104" height="40" as="geometry">
            <mxRectangle width="104" height="40" as="alternateBounds" />
          </mxGeometry>
        </mxCell>
        <mxCell id="bn8CDc2ltYo8I26y6Iki-60" value="total_no_seats" style="shape=partialRectangle;html=1;whiteSpace=wrap;connectable=0;strokeColor=inherit;overflow=hidden;fillColor=none;top=0;left=0;bottom=0;right=0;pointerEvents=1;fontSize=16;" vertex="1" parent="bn8CDc2ltYo8I26y6Iki-58">
          <mxGeometry x="104" width="102" height="40" as="geometry">
            <mxRectangle width="102" height="40" as="alternateBounds" />
          </mxGeometry>
        </mxCell>
        <mxCell id="bn8CDc2ltYo8I26y6Iki-61" value="Airplane Type&lt;div&gt;Type name(FK)&lt;/div&gt;" style="shape=partialRectangle;html=1;whiteSpace=wrap;connectable=0;strokeColor=inherit;overflow=hidden;fillColor=none;top=0;left=0;bottom=0;right=0;pointerEvents=1;fontSize=16;" vertex="1" parent="bn8CDc2ltYo8I26y6Iki-58">
          <mxGeometry x="206" width="104" height="40" as="geometry">
            <mxRectangle width="104" height="40" as="alternateBounds" />
          </mxGeometry>
        </mxCell>
        <mxCell id="bn8CDc2ltYo8I26y6Iki-63" value="Airplane" style="text;html=1;align=center;verticalAlign=middle;whiteSpace=wrap;rounded=0;fontSize=15;" vertex="1" parent="1">
          <mxGeometry x="300" y="640" width="60" height="30" as="geometry" />
        </mxCell>
        <mxCell id="bn8CDc2ltYo8I26y6Iki-64" value="" style="shape=table;startSize=0;container=1;collapsible=0;childLayout=tableLayout;fontSize=16;" vertex="1" parent="1">
          <mxGeometry x="296" y="780" width="310" height="40" as="geometry" />
        </mxCell>
        <mxCell id="bn8CDc2ltYo8I26y6Iki-65" value="" style="shape=tableRow;horizontal=0;startSize=0;swimlaneHead=0;swimlaneBody=0;strokeColor=inherit;top=0;left=0;bottom=0;right=0;collapsible=0;dropTarget=0;fillColor=none;points=[[0,0.5],[1,0.5]];portConstraint=eastwest;fontSize=16;" vertex="1" parent="bn8CDc2ltYo8I26y6Iki-64">
          <mxGeometry width="310" height="40" as="geometry" />
        </mxCell>
        <mxCell id="bn8CDc2ltYo8I26y6Iki-66" value="&lt;u&gt;Type_name&lt;/u&gt;" style="shape=partialRectangle;html=1;whiteSpace=wrap;connectable=0;strokeColor=inherit;overflow=hidden;fillColor=none;top=0;left=0;bottom=0;right=0;pointerEvents=1;fontSize=16;" vertex="1" parent="bn8CDc2ltYo8I26y6Iki-65">
          <mxGeometry width="104" height="40" as="geometry">
            <mxRectangle width="104" height="40" as="alternateBounds" />
          </mxGeometry>
        </mxCell>
        <mxCell id="bn8CDc2ltYo8I26y6Iki-67" value="max_seats" style="shape=partialRectangle;html=1;whiteSpace=wrap;connectable=0;strokeColor=inherit;overflow=hidden;fillColor=none;top=0;left=0;bottom=0;right=0;pointerEvents=1;fontSize=16;" vertex="1" parent="bn8CDc2ltYo8I26y6Iki-65">
          <mxGeometry x="104" width="102" height="40" as="geometry">
            <mxRectangle width="102" height="40" as="alternateBounds" />
          </mxGeometry>
        </mxCell>
        <mxCell id="bn8CDc2ltYo8I26y6Iki-68" value="company" style="shape=partialRectangle;html=1;whiteSpace=wrap;connectable=0;strokeColor=inherit;overflow=hidden;fillColor=none;top=0;left=0;bottom=0;right=0;pointerEvents=1;fontSize=16;" vertex="1" parent="bn8CDc2ltYo8I26y6Iki-65">
          <mxGeometry x="206" width="104" height="40" as="geometry">
            <mxRectangle width="104" height="40" as="alternateBounds" />
          </mxGeometry>
        </mxCell>
        <mxCell id="bn8CDc2ltYo8I26y6Iki-69" value="Airplane Type" style="text;html=1;align=center;verticalAlign=middle;whiteSpace=wrap;rounded=0;fontSize=15;" vertex="1" parent="1">
          <mxGeometry x="300" y="740" width="60" height="30" as="geometry" />
        </mxCell>
        <mxCell id="bn8CDc2ltYo8I26y6Iki-70" value="" style="shape=table;startSize=0;container=1;collapsible=0;childLayout=tableLayout;fontSize=16;" vertex="1" parent="1">
          <mxGeometry x="296" y="890" width="244" height="40" as="geometry" />
        </mxCell>
        <mxCell id="bn8CDc2ltYo8I26y6Iki-71" value="" style="shape=tableRow;horizontal=0;startSize=0;swimlaneHead=0;swimlaneBody=0;strokeColor=inherit;top=0;left=0;bottom=0;right=0;collapsible=0;dropTarget=0;fillColor=none;points=[[0,0.5],[1,0.5]];portConstraint=eastwest;fontSize=16;" vertex="1" parent="bn8CDc2ltYo8I26y6Iki-70">
          <mxGeometry width="244" height="40" as="geometry" />
        </mxCell>
        <mxCell id="bn8CDc2ltYo8I26y6Iki-72" value="&lt;u&gt;airport code (FK)&lt;/u&gt;" style="shape=partialRectangle;html=1;whiteSpace=wrap;connectable=0;strokeColor=inherit;overflow=hidden;fillColor=none;top=0;left=0;bottom=0;right=0;pointerEvents=1;fontSize=16;" vertex="1" parent="bn8CDc2ltYo8I26y6Iki-71">
          <mxGeometry width="123" height="40" as="geometry">
            <mxRectangle width="123" height="40" as="alternateBounds" />
          </mxGeometry>
        </mxCell>
        <mxCell id="bn8CDc2ltYo8I26y6Iki-73" value="Airplane Type&lt;div&gt;Type Name(FK)&lt;/div&gt;" style="shape=partialRectangle;html=1;whiteSpace=wrap;connectable=0;strokeColor=inherit;overflow=hidden;fillColor=none;top=0;left=0;bottom=0;right=0;pointerEvents=1;fontSize=16;" vertex="1" parent="bn8CDc2ltYo8I26y6Iki-71">
          <mxGeometry x="123" width="121" height="40" as="geometry">
            <mxRectangle width="121" height="40" as="alternateBounds" />
          </mxGeometry>
        </mxCell>
        <mxCell id="bn8CDc2ltYo8I26y6Iki-75" value="Can Land" style="text;html=1;align=center;verticalAlign=middle;whiteSpace=wrap;rounded=0;fontSize=15;" vertex="1" parent="1">
          <mxGeometry x="296" y="850" width="60" height="30" as="geometry" />
        </mxCell>
        <mxCell id="bn8CDc2ltYo8I26y6Iki-76" value="" style="shape=table;startSize=0;container=1;collapsible=0;childLayout=tableLayout;fontSize=16;" vertex="1" parent="1">
          <mxGeometry x="870" y="565" width="660" height="40" as="geometry" />
        </mxCell>
        <mxCell id="bn8CDc2ltYo8I26y6Iki-77" value="" style="shape=tableRow;horizontal=0;startSize=0;swimlaneHead=0;swimlaneBody=0;strokeColor=inherit;top=0;left=0;bottom=0;right=0;collapsible=0;dropTarget=0;fillColor=none;points=[[0,0.5],[1,0.5]];portConstraint=eastwest;fontSize=16;" vertex="1" parent="bn8CDc2ltYo8I26y6Iki-76">
          <mxGeometry width="660" height="40" as="geometry" />
        </mxCell>
        <mxCell id="bn8CDc2ltYo8I26y6Iki-78" value="&lt;u&gt;Seat_no&lt;/u&gt;" style="shape=partialRectangle;html=1;whiteSpace=wrap;connectable=0;strokeColor=inherit;overflow=hidden;fillColor=none;top=0;left=0;bottom=0;right=0;pointerEvents=1;fontSize=16;" vertex="1" parent="bn8CDc2ltYo8I26y6Iki-77">
          <mxGeometry width="167" height="40" as="geometry">
            <mxRectangle width="167" height="40" as="alternateBounds" />
          </mxGeometry>
        </mxCell>
        <mxCell id="bn8CDc2ltYo8I26y6Iki-79" value="cphone" style="shape=partialRectangle;html=1;whiteSpace=wrap;connectable=0;strokeColor=inherit;overflow=hidden;fillColor=none;top=0;left=0;bottom=0;right=0;pointerEvents=1;fontSize=16;" vertex="1" parent="bn8CDc2ltYo8I26y6Iki-77">
          <mxGeometry x="167" width="162" height="40" as="geometry">
            <mxRectangle width="162" height="40" as="alternateBounds" />
          </mxGeometry>
        </mxCell>
        <mxCell id="bn8CDc2ltYo8I26y6Iki-80" value="costumer_name" style="shape=partialRectangle;html=1;whiteSpace=wrap;connectable=0;strokeColor=inherit;overflow=hidden;fillColor=none;top=0;left=0;bottom=0;right=0;pointerEvents=1;fontSize=16;" vertex="1" parent="bn8CDc2ltYo8I26y6Iki-77">
          <mxGeometry x="329" width="164" height="40" as="geometry">
            <mxRectangle width="164" height="40" as="alternateBounds" />
          </mxGeometry>
        </mxCell>
        <mxCell id="bn8CDc2ltYo8I26y6Iki-81" value="&lt;u&gt;leg_instance_date(FK)&lt;/u&gt;" style="shape=partialRectangle;html=1;whiteSpace=wrap;connectable=0;strokeColor=inherit;overflow=hidden;fillColor=none;top=0;left=0;bottom=0;right=0;pointerEvents=1;fontSize=16;" vertex="1" parent="bn8CDc2ltYo8I26y6Iki-77">
          <mxGeometry x="493" width="167" height="40" as="geometry">
            <mxRectangle width="167" height="40" as="alternateBounds" />
          </mxGeometry>
        </mxCell>
        <mxCell id="bn8CDc2ltYo8I26y6Iki-83" value="" style="endArrow=classic;html=1;rounded=0;entryX=0;entryY=0.5;entryDx=0;entryDy=0;" edge="1" parent="1" target="bn8CDc2ltYo8I26y6Iki-34">
          <mxGeometry width="50" height="50" relative="1" as="geometry">
            <mxPoint x="290" y="910" as="sourcePoint" />
            <mxPoint x="230" y="130" as="targetPoint" />
            <Array as="points">
              <mxPoint x="220" y="910" />
              <mxPoint x="220" y="590" />
            </Array>
          </mxGeometry>
        </mxCell>
        <mxCell id="bn8CDc2ltYo8I26y6Iki-84" value="" style="endArrow=classic;html=1;rounded=0;entryX=1;entryY=1;entryDx=0;entryDy=0;" edge="1" parent="1" target="bn8CDc2ltYo8I26y6Iki-38">
          <mxGeometry width="50" height="50" relative="1" as="geometry">
            <mxPoint x="890" y="380" as="sourcePoint" />
            <mxPoint x="940" y="330" as="targetPoint" />
            <Array as="points">
              <mxPoint x="890" y="430" />
              <mxPoint x="240" y="430" />
              <mxPoint x="240" y="540" />
              <mxPoint x="356" y="540" />
            </Array>
          </mxGeometry>
        </mxCell>
        <mxCell id="bn8CDc2ltYo8I26y6Iki-86" value="" style="endArrow=none;html=1;rounded=0;" edge="1" parent="1">
          <mxGeometry width="50" height="50" relative="1" as="geometry">
            <mxPoint x="660" y="380" as="sourcePoint" />
            <mxPoint x="660" y="430" as="targetPoint" />
          </mxGeometry>
        </mxCell>
        <mxCell id="bn8CDc2ltYo8I26y6Iki-87" value="" style="endArrow=classic;html=1;rounded=0;entryX=0.211;entryY=1.05;entryDx=0;entryDy=0;entryPerimeter=0;" edge="1" parent="1" target="bn8CDc2ltYo8I26y6Iki-2">
          <mxGeometry width="50" height="50" relative="1" as="geometry">
            <mxPoint x="350" y="230" as="sourcePoint" />
            <mxPoint x="400" y="180" as="targetPoint" />
          </mxGeometry>
        </mxCell>
        <mxCell id="bn8CDc2ltYo8I26y6Iki-88" value="" style="endArrow=classic;html=1;rounded=0;" edge="1" parent="1">
          <mxGeometry width="50" height="50" relative="1" as="geometry">
            <mxPoint x="750" y="510" as="sourcePoint" />
            <mxPoint x="370" y="570" as="targetPoint" />
            <Array as="points">
              <mxPoint x="750" y="540" />
              <mxPoint x="370" y="540" />
            </Array>
          </mxGeometry>
        </mxCell>
        <mxCell id="bn8CDc2ltYo8I26y6Iki-90" value="" style="endArrow=none;html=1;rounded=0;" edge="1" parent="1">
          <mxGeometry width="50" height="50" relative="1" as="geometry">
            <mxPoint x="930" y="510" as="sourcePoint" />
            <mxPoint x="750" y="540" as="targetPoint" />
            <Array as="points">
              <mxPoint x="930" y="540" />
            </Array>
          </mxGeometry>
        </mxCell>
        <mxCell id="bn8CDc2ltYo8I26y6Iki-91" value="" style="endArrow=classic;html=1;rounded=0;entryX=0.927;entryY=1.036;entryDx=0;entryDy=0;entryPerimeter=0;" edge="1" parent="1" target="bn8CDc2ltYo8I26y6Iki-25">
          <mxGeometry width="50" height="50" relative="1" as="geometry">
            <mxPoint x="1660" y="470" as="sourcePoint" />
            <mxPoint x="1710" y="420" as="targetPoint" />
          </mxGeometry>
        </mxCell>
        <mxCell id="bn8CDc2ltYo8I26y6Iki-92" value="" style="endArrow=classic;html=1;rounded=0;entryX=0.249;entryY=1.05;entryDx=0;entryDy=0;entryPerimeter=0;" edge="1" parent="1" target="bn8CDc2ltYo8I26y6Iki-2">
          <mxGeometry width="50" height="50" relative="1" as="geometry">
            <mxPoint x="1490" y="470" as="sourcePoint" />
            <mxPoint x="1540" y="420" as="targetPoint" />
            <Array as="points">
              <mxPoint x="1490" y="450" />
              <mxPoint x="1750" y="450" />
              <mxPoint x="1750" y="210" />
              <mxPoint x="355" y="200" />
            </Array>
          </mxGeometry>
        </mxCell>
        <mxCell id="bn8CDc2ltYo8I26y6Iki-93" value="" style="endArrow=classic;html=1;rounded=0;entryX=0.123;entryY=1.05;entryDx=0;entryDy=0;entryPerimeter=0;" edge="1" parent="1" target="bn8CDc2ltYo8I26y6Iki-2">
          <mxGeometry width="50" height="50" relative="1" as="geometry">
            <mxPoint x="410" y="380" as="sourcePoint" />
            <mxPoint x="460" y="330" as="targetPoint" />
            <Array as="points">
              <mxPoint x="410" y="410" />
              <mxPoint x="270" y="410" />
              <mxPoint x="270" y="190" />
              <mxPoint x="320" y="190" />
            </Array>
          </mxGeometry>
        </mxCell>
        <mxCell id="bn8CDc2ltYo8I26y6Iki-95" value="" style="endArrow=classic;html=1;rounded=0;entryX=0.19;entryY=1.021;entryDx=0;entryDy=0;entryPerimeter=0;" edge="1" parent="1" target="bn8CDc2ltYo8I26y6Iki-58">
          <mxGeometry width="50" height="50" relative="1" as="geometry">
            <mxPoint x="1850" y="510" as="sourcePoint" />
            <mxPoint x="720" y="710" as="targetPoint" />
            <Array as="points">
              <mxPoint x="1850" y="750" />
              <mxPoint x="355" y="750" />
            </Array>
          </mxGeometry>
        </mxCell>
        <mxCell id="bn8CDc2ltYo8I26y6Iki-96" value="" style="endArrow=classic;html=1;rounded=0;entryX=0.057;entryY=1.15;entryDx=0;entryDy=0;entryPerimeter=0;" edge="1" parent="1" target="bn8CDc2ltYo8I26y6Iki-47">
          <mxGeometry width="50" height="50" relative="1" as="geometry">
            <mxPoint x="1440" y="565" as="sourcePoint" />
            <mxPoint x="1490" y="515" as="targetPoint" />
            <Array as="points">
              <mxPoint x="1440" y="550" />
              <mxPoint x="390" y="550" />
            </Array>
          </mxGeometry>
        </mxCell>
        <mxCell id="bn8CDc2ltYo8I26y6Iki-100" value="&lt;font style=&quot;font-size: 15px;&quot;&gt;Seat&lt;/font&gt;" style="text;html=1;align=center;verticalAlign=middle;resizable=0;points=[];autosize=1;strokeColor=none;fillColor=none;" vertex="1" parent="1">
          <mxGeometry x="875" y="608" width="50" height="30" as="geometry" />
        </mxCell>
      </root>
    </mxGraphModel>
  </diagram>
</mxfile>
